<svg viewBox="0 0 400 300" xmlns="http://www.w3.org/2000/svg" preserveAspectRatio="xMidYMid slice" role="img" aria-label="Иллюстрация: Фриттата с тунцом и шпинатом">
 <defs><radialGradient id="ltunafrittata" cx="28%" cy="18%" r="95%"><stop offset="0" stop-color="#fff" stop-opacity=".22"/><stop offset=".6" stop-color="#fff" stop-opacity="0"/><stop offset="1" stop-color="#000" stop-opacity=".28"/></radialGradient>
 <filter id="btunafrittata" x="-20%" y="-20%" width="140%" height="140%"><feGaussianBlur stdDeviation="9"/></filter></defs>
 <rect width="400" height="300" fill="#6e8a7a"/><path d="M-300 0 l300 300" stroke="#fff" stroke-opacity=".035" stroke-width="5"/><path d="M-286 0 l300 300" stroke="#fff" stroke-opacity=".035" stroke-width="5"/><path d="M-272 0 l300 300" stroke="#fff" stroke-opacity=".035" stroke-width="5"/><path d="M-258 0 l300 300" stroke="#fff" stroke-opacity=".035" stroke-width="5"/><path d="M-244 0 l300 300" stroke="#fff" stroke-opacity=".035" stroke-width="5"/><path d="M-230 0 l300 300" stroke="#fff" stroke-opacity=".035" stroke-width="5"/><path d="M-216 0 l300 300" stroke="#fff" stroke-opacity=".035" stroke-width="5"/><path d="M-202 0 l300 300" stroke="#fff" stroke-opacity=".035" stroke-width="5"/><path d="M-188 0 l300 300" stroke="#fff" stroke-opacity=".035" stroke-width="5"/><path d="M-174 0 l300 300" stroke="#fff" stroke-opacity=".035" stroke-width="5"/><path d="M-160 0 l300 300" stroke="#fff" stroke-opacity=".035" stroke-width="5"/><path d="M-146 0 l300 300" stroke="#fff" stroke-opacity=".035" stroke-width="5"/><path d="M-132 0 l300 300" stroke="#fff" stroke-opacity=".035" stroke-width="5"/><path d="M-118 0 l300 300" stroke="#fff" stroke-opacity=".035" stroke-width="5"/><path d="M-104 0 l300 300" stroke="#fff" stroke-opacity=".035" stroke-width="5"/><path d="M-90 0 l300 300" stroke="#fff" stroke-opacity=".035" stroke-width="5"/><path d="M-76 0 l300 300" stroke="#fff" stroke-opacity=".035" stroke-width="5"/><path d="M-62 0 l300 300" stroke="#fff" stroke-opacity=".035" stroke-width="5"/><path d="M-48 0 l300 300" stroke="#fff" stroke-opacity=".035" stroke-width="5"/><path d="M-34 0 l300 300" stroke="#fff" stroke-opacity=".035" stroke-width="5"/><path d="M-20 0 l300 300" stroke="#fff" stroke-opacity=".035" stroke-width="5"/><path d="M-6 0 l300 300" stroke="#fff" stroke-opacity=".035" stroke-width="5"/><path d="M8 0 l300 300" stroke="#fff" stroke-opacity=".035" stroke-width="5"/><path d="M22 0 l300 300" stroke="#fff" stroke-opacity=".035" stroke-width="5"/><path d="M36 0 l300 300" stroke="#fff" stroke-opacity=".035" stroke-width="5"/><path d="M50 0 l300 300" stroke="#fff" stroke-opacity=".035" stroke-width="5"/><path d="M64 0 l300 300" stroke="#fff" stroke-opacity=".035" stroke-width="5"/><path d="M78 0 l300 300" stroke="#fff" stroke-opacity=".035" stroke-width="5"/><path d="M92 0 l300 300" stroke="#fff" stroke-opacity=".035" stroke-width="5"/><path d="M106 0 l300 300" stroke="#fff" stroke-opacity=".035" stroke-width="5"/><path d="M120 0 l300 300" stroke="#fff" stroke-opacity=".035" stroke-width="5"/><path d="M134 0 l300 300" stroke="#fff" stroke-opacity=".035" stroke-width="5"/><path d="M148 0 l300 300" stroke="#fff" stroke-opacity=".035" stroke-width="5"/><path d="M162 0 l300 300" stroke="#fff" stroke-opacity=".035" stroke-width="5"/><path d="M176 0 l300 300" stroke="#fff" stroke-opacity=".035" stroke-width="5"/><path d="M190 0 l300 300" stroke="#fff" stroke-opacity=".035" stroke-width="5"/><path d="M204 0 l300 300" stroke="#fff" stroke-opacity=".035" stroke-width="5"/><path d="M218 0 l300 300" stroke="#fff" stroke-opacity=".035" stroke-width="5"/><path d="M232 0 l300 300" stroke="#fff" stroke-opacity=".035" stroke-width="5"/><path d="M246 0 l300 300" stroke="#fff" stroke-opacity=".035" stroke-width="5"/><path d="M260 0 l300 300" stroke="#fff" stroke-opacity=".035" stroke-width="5"/><path d="M274 0 l300 300" stroke="#fff" stroke-opacity=".035" stroke-width="5"/><path d="M288 0 l300 300" stroke="#fff" stroke-opacity=".035" stroke-width="5"/><path d="M302 0 l300 300" stroke="#fff" stroke-opacity=".035" stroke-width="5"/><path d="M316 0 l300 300" stroke="#fff" stroke-opacity=".035" stroke-width="5"/><path d="M330 0 l300 300" stroke="#fff" stroke-opacity=".035" stroke-width="5"/><path d="M344 0 l300 300" stroke="#fff" stroke-opacity=".035" stroke-width="5"/><path d="M358 0 l300 300" stroke="#fff" stroke-opacity=".035" stroke-width="5"/><path d="M372 0 l300 300" stroke="#fff" stroke-opacity=".035" stroke-width="5"/><path d="M386 0 l300 300" stroke="#fff" stroke-opacity=".035" stroke-width="5"/><ellipse cx="212" cy="164" rx="134" ry="130" fill="#000" opacity=".28" filter="url(#btunafrittata)"/><rect x="316" y="136" width="90" height="28" rx="12" fill="#1c1a19"/><circle cx="200" cy="150" r="132" fill="#282524"/><circle cx="200" cy="150" r="120" fill="#35312e"/><path d="M300.9 131.8 Q301.9 150.0 300.2 167.9 Q298.6 185.9 290.0 202.1 Q281.4 218.3 266.7 229.3 Q252.1 240.2 234.9 245.3 Q217.7 250.3 199.6 252.8 Q181.4 255.3 164.2 248.5 Q147.0 241.8 134.9 228.3 Q122.7 214.9 111.2 200.7 Q99.8 186.5 98.6 168.2 Q97.5 150.0 98.8 131.8 Q100.0 113.6 110.8 98.9 Q121.6 84.2 135.4 73.1 Q149.2 61.9 165.7 55.5 Q182.2 49.0 199.9 49.6 Q217.6 50.3 234.2 56.1 Q250.9 61.8 265.8 72.0 Q280.7 82.3 290.4 97.9 Q300.0 113.6 300.9 131.8Z" fill="#f3e5bf" stroke="#dcbf7f" stroke-width="4"/><circle cx="221.7" cy="117.9" r="7.4" fill="#e7cf92" opacity=".55"/><circle cx="156.3" cy="179.6" r="6.3" fill="#e7cf92" opacity=".55"/><circle cx="190.1" cy="148.5" r="5.5" fill="#e7cf92" opacity=".55"/><circle cx="231.9" cy="84.4" r="5.9" fill="#e7cf92" opacity=".55"/><circle cx="190.4" cy="204.5" r="5.7" fill="#e7cf92" opacity=".55"/><circle cx="187.9" cy="118.7" r="8.2" fill="#e7cf92" opacity=".55"/><circle cx="169.5" cy="106.1" r="8.5" fill="#e7cf92" opacity=".55"/><circle cx="171.6" cy="158.0" r="3.2" fill="#e7cf92" opacity=".55"/><circle cx="221.9" cy="129.8" r="3.5" fill="#e7cf92" opacity=".55"/><circle cx="171.0" cy="107.2" r="6.6" fill="#e7cf92" opacity=".55"/><g transform="translate(135.3 162.1) rotate(222) scale(0.96)"><path d="M0 -22 C15 -14 15 12 0 22 C-15 12 -15 -14 0 -22Z" fill="#2f6b37"/><path d="M0 -19 L0 20" stroke="#4d8c49" stroke-width="1.6"/></g><g transform="translate(265.5 160.0) rotate(100) scale(0.90)"><path d="M0 -22 C15 -14 15 12 0 22 C-15 12 -15 -14 0 -22Z" fill="#2f6b37"/><path d="M0 -19 L0 20" stroke="#4d8c49" stroke-width="1.6"/></g><g transform="translate(196.4 86.7) rotate(251) scale(0.99)"><path d="M0 -22 C15 -14 15 12 0 22 C-15 12 -15 -14 0 -22Z" fill="#2f6b37"/><path d="M0 -19 L0 20" stroke="#4d8c49" stroke-width="1.6"/></g><g transform="translate(206.2 203.1) rotate(14) scale(0.88)"><path d="M0 -22 C15 -14 15 12 0 22 C-15 12 -15 -14 0 -22Z" fill="#2f6b37"/><path d="M0 -19 L0 20" stroke="#4d8c49" stroke-width="1.6"/></g><g transform="translate(206.2 148.2) rotate(136) scale(1.07)"><path d="M0 -22 C15 -14 15 12 0 22 C-15 12 -15 -14 0 -22Z" fill="#2f6b37"/><path d="M0 -19 L0 20" stroke="#4d8c49" stroke-width="1.6"/></g><g transform="translate(158.2 112.9) rotate(33) scale(1)"><circle cx="-3.9" cy="-5.1" r="8.9" fill="#d7b49b"/><circle cx="-0.3" cy="5.7" r="6.8" fill="#c79d84"/><circle cx="8.3" cy="-3.1" r="6.7" fill="#e4c7b1"/><circle cx="-7.9" cy="3.0" r="6.4" fill="#d7b49b"/><circle cx="-1.9" cy="7.1" r="5.8" fill="#c79d84"/><circle cx="1.5" cy="6.5" r="5.8" fill="#e4c7b1"/><circle cx="9.2" cy="1.5" r="5.4" fill="#d7b49b"/></g><g transform="translate(245.5 116.2) rotate(323) scale(1)"><circle cx="-0.3" cy="-5.9" r="7.4" fill="#d7b49b"/><circle cx="-5.3" cy="9.1" r="7.1" fill="#c79d84"/><circle cx="-4.7" cy="2.9" r="8.4" fill="#e4c7b1"/><circle cx="-5.9" cy="7.4" r="6.8" fill="#d7b49b"/><circle cx="-5.2" cy="8.5" r="7.0" fill="#c79d84"/><circle cx="-2.7" cy="-1.0" r="5.5" fill="#e4c7b1"/><circle cx="-3.2" cy="3.0" r="6.4" fill="#d7b49b"/></g><g transform="translate(242.6 202.2) rotate(209) scale(1)"><circle cx="1.2" cy="6.2" r="7.3" fill="#d7b49b"/><circle cx="0.1" cy="0.4" r="8.1" fill="#c79d84"/><circle cx="-10.6" cy="-3.2" r="6.5" fill="#e4c7b1"/><circle cx="-3.3" cy="7.4" r="7.4" fill="#d7b49b"/><circle cx="2.1" cy="-5.7" r="5.7" fill="#c79d84"/><circle cx="-4.5" cy="-4.0" r="8.1" fill="#e4c7b1"/><circle cx="4.4" cy="5.7" r="8.1" fill="#d7b49b"/></g><g transform="translate(174.8 183.6) rotate(35) scale(1)"><circle cx="-11.8" cy="-5.0" r="6.2" fill="#d7b49b"/><circle cx="-4.6" cy="-6.1" r="7.2" fill="#c79d84"/><circle cx="-1.5" cy="9.4" r="5.3" fill="#e4c7b1"/><circle cx="-9.4" cy="-4.6" r="6.7" fill="#d7b49b"/><circle cx="2.2" cy="6.9" r="7.0" fill="#c79d84"/><circle cx="6.3" cy="-7.8" r="8.0" fill="#e4c7b1"/><circle cx="-6.9" cy="-7.4" r="5.6" fill="#d7b49b"/></g><g transform="translate(170.7 138.0) rotate(261) scale(1)"><circle r="9" fill="none" stroke="#91457d" stroke-width="2.6"/><circle r="5" fill="none" stroke="#b36aa0" stroke-width="2"/></g><g transform="translate(231.2 172.9) rotate(15) scale(1)"><circle r="9" fill="none" stroke="#91457d" stroke-width="2.6"/><circle r="5" fill="none" stroke="#b36aa0" stroke-width="2"/></g><g transform="translate(188.3 117.9) rotate(72) scale(1)"><circle r="9" fill="none" stroke="#91457d" stroke-width="2.6"/><circle r="5" fill="none" stroke="#b36aa0" stroke-width="2"/></g><g transform="translate(217.4 117.1) rotate(290) scale(1)"><g transform="rotate(-36)"><ellipse cx="0" cy="-22" rx="9" ry="24" fill="#e1e8a2" stroke="#56812b" stroke-width="3.2"/><ellipse cx="-2" cy="-26" rx="3.5" ry="13" fill="#f4f3c9" opacity=".6"/></g><g transform="rotate(-18)"><ellipse cx="0" cy="-22" rx="9" ry="24" fill="#e1e8a2" stroke="#56812b" stroke-width="3.2"/><ellipse cx="-2" cy="-26" rx="3.5" ry="13" fill="#f4f3c9" opacity=".6"/></g><g transform="rotate(0)"><ellipse cx="0" cy="-22" rx="9" ry="24" fill="#e1e8a2" stroke="#56812b" stroke-width="3.2"/><ellipse cx="-2" cy="-26" rx="3.5" ry="13" fill="#f4f3c9" opacity=".6"/></g><g transform="rotate(18)"><ellipse cx="0" cy="-22" rx="9" ry="24" fill="#e1e8a2" stroke="#56812b" stroke-width="3.2"/><ellipse cx="-2" cy="-26" rx="3.5" ry="13" fill="#f4f3c9" opacity=".6"/></g><g transform="rotate(36)"><ellipse cx="0" cy="-22" rx="9" ry="24" fill="#e1e8a2" stroke="#56812b" stroke-width="3.2"/><ellipse cx="-2" cy="-26" rx="3.5" ry="13" fill="#f4f3c9" opacity=".6"/></g></g><path d="M229.9 189.3 l2.1 -3.8" stroke="#4f8f3c" stroke-width="1.8" stroke-linecap="round"/><path d="M156.0 95.7 l-3.6 -1.2" stroke="#2f6a2a" stroke-width="1.8" stroke-linecap="round"/><path d="M206.9 132.8 l-0.5 -2.5" stroke="#4f8f3c" stroke-width="1.8" stroke-linecap="round"/><path d="M204.4 218.4 l-3.3 3.9" stroke="#2f6a2a" stroke-width="1.8" stroke-linecap="round"/><path d="M186.7 130.9 l2.3 3.5" stroke="#4f8f3c" stroke-width="1.8" stroke-linecap="round"/><path d="M205.5 147.0 l2.7 -3.3" stroke="#2f6a2a" stroke-width="1.8" stroke-linecap="round"/><path d="M168.1 181.1 l3.5 0.9" stroke="#4f8f3c" stroke-width="1.8" stroke-linecap="round"/><path d="M204.7 118.5 l1.0 1.3" stroke="#2f6a2a" stroke-width="1.8" stroke-linecap="round"/><path d="M236.0 148.6 l1.1 -1.1" stroke="#4f8f3c" stroke-width="1.8" stroke-linecap="round"/><path d="M201.5 169.2 l-3.7 1.2" stroke="#2f6a2a" stroke-width="1.8" stroke-linecap="round"/><path d="M123.4 113.3 l-1.2 -2.7" stroke="#4f8f3c" stroke-width="1.8" stroke-linecap="round"/><path d="M135.9 182.9 l2.5 3.8" stroke="#2f6a2a" stroke-width="1.8" stroke-linecap="round"/><path d="M166.4 227.2 l-2.5 -3.2" stroke="#4f8f3c" stroke-width="1.8" stroke-linecap="round"/><path d="M259.7 173.2 l1.3 0.7" stroke="#2f6a2a" stroke-width="1.8" stroke-linecap="round"/><path d="M234.5 204.8 l2.6 -3.2" stroke="#4f8f3c" stroke-width="1.8" stroke-linecap="round"/><path d="M216.0 140.1 l-3.4 2.2" stroke="#2f6a2a" stroke-width="1.8" stroke-linecap="round"/><path d="M235.1 172.1 l-0.7 -3.3" stroke="#4f8f3c" stroke-width="1.8" stroke-linecap="round"/><path d="M182.4 127.6 l3.6 0.5" stroke="#2f6a2a" stroke-width="1.8" stroke-linecap="round"/><path d="M131.6 153.2 l-1.1 -2.3" stroke="#4f8f3c" stroke-width="1.8" stroke-linecap="round"/><path d="M188.1 194.5 l-0.2 2.9" stroke="#2f6a2a" stroke-width="1.8" stroke-linecap="round"/><path d="M193.0 182.8 l-1.0 1.0" stroke="#4f8f3c" stroke-width="1.8" stroke-linecap="round"/><path d="M172.3 165.1 l3.6 -1.4" stroke="#2f6a2a" stroke-width="1.8" stroke-linecap="round"/><path d="M141.3 103.6 l2.3 3.4" stroke="#4f8f3c" stroke-width="1.8" stroke-linecap="round"/><path d="M253.9 124.9 l-2.3 -2.6" stroke="#2f6a2a" stroke-width="1.8" stroke-linecap="round"/><path d="M259.1 105.2 l-3.6 3.5" stroke="#4f8f3c" stroke-width="1.8" stroke-linecap="round"/><path d="M139.9 120.3 l1.0 0.4" stroke="#2f6a2a" stroke-width="1.8" stroke-linecap="round"/><path d="M244.4 177.0 l-0.3 0.4" stroke="#4f8f3c" stroke-width="1.8" stroke-linecap="round"/><path d="M269.1 199.5 l1.3 2.9" stroke="#2f6a2a" stroke-width="1.8" stroke-linecap="round"/><path d="M147.3 98.0 l2.0 1.6" stroke="#4f8f3c" stroke-width="1.8" stroke-linecap="round"/><path d="M227.8 221.9 l-3.3 0.6" stroke="#2f6a2a" stroke-width="1.8" stroke-linecap="round"/><path d="M139.6 174.7 l-2.4 3.3" stroke="#4f8f3c" stroke-width="1.8" stroke-linecap="round"/><path d="M165.6 148.0 l-2.6 -0.5" stroke="#2f6a2a" stroke-width="1.8" stroke-linecap="round"/><path d="M240.1 94.1 l1.6 -2.0" stroke="#4f8f3c" stroke-width="1.8" stroke-linecap="round"/><path d="M159.1 138.8 l-2.3 -2.5" stroke="#2f6a2a" stroke-width="1.8" stroke-linecap="round"/><rect width="400" height="300" fill="url(#ltunafrittata)"/></svg>
